<svg xmlns="http://www.w3.org/2000/svg" width="1440" height="264" fill="none"><g clip-path="url(#a)"><path fill="url(#b)" d="M503.15-.03c0 .9-.6 1.48-1.48 2.07l-23.4 8c-2.66 11.54-7.4 22.5-13.62 32.27l10.66 22.22c.3.88.3 1.77-.28 2.36L454 87.6c-.6.6-1.78.6-2.37.3l-22.2-10.95c-9.78 5.92-20.74 10.66-32.28 13.33l-8.3 23.4c-.3.87-1.18 1.17-2.06 1.47h-29.62c-.9 0-1.48-.6-2.08-1.48l-8-23.4c-11.54-2.66-22.5-7.4-32.26-13.6l-22.2 10.64c-.9.3-1.8.3-2.38-.28L269.54 66c-.6-.6-.6-1.78-.3-2.37l10.95-22.2c-5.93-9.78-10.66-20.73-13.33-32.28l-23.4-8.3C242.6.56 242.3-.32 242-1.2v-29.62c0-.9.6-1.48 1.48-2.08l23.4-8c2.66-11.54 7.4-22.5 13.6-32.26l-10.65-22.2c-.3-.9-.3-1.8.3-2.38l21.02-20.72c.6-.6 1.78-.6 2.37-.3l22.2 10.95c9.78-5.93 20.73-10.66 32.28-13.33l8.3-23.4c.28-.88 1.17-1.17 2.06-1.47h29.6c.9 0 1.5.6 2.08 1.48l8 23.4c11.54 2.66 22.5 7.4 32.27 13.6l22.22-10.65c.88-.3 1.77-.3 2.36.3l20.73 21.02c.6.6.6 1.78.3 2.37l-10.95 22.2c5.92 9.78 10.66 20.73 13.32 32.28l23.4 8.3c.88.28 1.18 1.17 1.48 2.06v29.6zm-112.52-75.2c-32.86-9.78-67.5 8.88-77.27 41.74-9.78 32.88 8.88 67.52 42.04 77.3 32.87 9.76 67.5-8.9 77.28-42.05 9.77-32.57-9.18-67.2-42.05-77z"/><path fill="url(#c)" d="M446.58-37.43c-12.3-40.86-55.2-64.3-96.08-52-40.88 12-64.05 55.14-52.04 96 12.3 40.87 55.2 64.3 96.08 52 40.9-12.28 64.33-55.14 52.04-96zM389.68 42c-31.74 9.44-65.2-8.57-74.63-40.28-9.44-31.72 8.58-65.15 40.6-74.58 31.74-9.43 65.2 8.57 74.63 40.57 9.44 31.44-8.86 64.88-40.6 74.3z"/><path fill="#4AA8D0" d="M1047.8 231.63l-9.5-3.34c-1.16-4.68-3-9.18-5.48-13.18l4.5-9c.15-.16.15-.66-.18-1l-8.48-8.66c-.17-.17-.67-.17-1-.17l-9 4.32c-3.98-2.5-8.48-4.5-13.13-5.5l-3.33-9.5c-.17-.5-.34-.66-.67-.66h-12.15c-.33.17-.66.17-.83.67l-3.33 9.5c-4.65 1.16-9.15 3-13.14 5.5l-9-4.5c-.15-.17-.65-.17-1 .16l-8.64 8.5c-.17.16-.17.66-.17 1l4.33 9c-2.5 4-4.5 8.5-5.5 13.16l-9.48 3.33c-.5.16-.66.32-.66.66v12.16c.16.34.16.67.66.84l9.5 3.33c1.15 4.66 3 9.16 5.48 13.16l-4.5 9c-.16.16-.16.66.17 1l8.5 8.66c.16.17.66.17 1 .17l8.98-4.34c4 2.5 8.48 4.5 13.14 5.5l3.32 9.5c.16.33.5.66.83.66h12.15c.33-.16.66-.16.83-.66l3.33-9.5c4.66-1.17 9.15-3 13.14-5.5l9 4.5c.16.16.66.16 1-.17l8.64-8.5c.17-.18.17-.68.17-1l-4.32-9c2.5-4 4.5-8.5 5.5-13.18l9.48-3.33c.33-.18.66-.5.66-.84V232.3c-.33-.18-.33-.5-.83-.68zm-52.6 20c-7.3 0-13.3-6-13.3-13.34s6-13.34 13.3-13.34c7.33 0 13.32 6 13.32 13.33 0 7.32-6 13.32-13.3 13.32z"/><path fill="#5B77E6" d="M1014.35 23.2c0 .23-.16.4-.4.54l-6.1 2.1c-.7 3.02-1.95 5.9-3.58 8.44l2.8 5.82c.07.23.07.46-.1.62l-5.5 5.42c-.14.15-.45.15-.6.08l-5.82-2.87c-2.56 1.55-5.42 2.8-8.45 3.5l-2.17 6.1c-.07.24-.3.32-.54.4h-7.76c-.23 0-.38-.16-.54-.4l-2.1-6.1c-3-.7-5.88-1.95-8.44-3.58l-5.8 2.8c-.24.07-.47.07-.63-.1l-5.42-5.5c-.15-.14-.15-.45-.07-.6l2.87-5.82c-1.55-2.56-2.8-5.42-3.5-8.45l-6.1-2.17c-.25-.07-.32-.3-.4-.54v-7.76c0-.23.15-.38.4-.54l6.1-2.1c.7-3 1.95-5.88 3.57-8.44l-2.8-5.8c-.06-.24-.06-.47.1-.63l5.5-5.42c.15-.15.46-.15.6-.07L965.3-5c2.55-1.55 5.42-2.8 8.44-3.5l2.17-6.1c.1-.24.32-.32.55-.4h7.75c.23 0 .4.16.54.4l2.1 6.1c3.02.7 5.9 1.95 8.44 3.57l5.8-2.8c.25-.06.48-.06.63.1l5.44 5.5c.15.15.15.46.08.6l-2.87 5.83c1.55 2.55 2.8 5.42 3.5 8.44l6.1 2.17c.24.1.32.32.4.55v7.75zM984.9 3.52c-8.6-2.56-17.67 2.32-20.23 10.93-2.55 8.6 2.33 17.66 11 20.22 8.6 2.56 17.68-2.32 20.23-11 2.56-8.53-2.4-17.6-11-20.15z"/><path fill="url(#d)" d="M1036.3 155.84c0-.9.58-1.48 1.47-2.08l23.37-8.05c2.63-11.55 7.34-22.5 13.53-32.3l-10.7-22.18c-.3-.9-.3-1.77.28-2.37l20.97-20.78c.6-.6 1.77-.6 2.37-.3l22.22 10.9c9.76-5.95 20.7-10.7 32.24-13.4l8.23-23.42c.28-.9 1.17-1.18 2.06-1.48l29.6-.08c.9 0 1.5.58 2.08 1.47l8.06 23.37c11.55 2.63 22.52 7.34 32.3 13.54l22.18-10.72c.9-.3 1.78-.3 2.37.3l20.78 20.96c.6.6.6 1.77.3 2.37l-10.9 22.22c5.95 9.76 10.72 20.7 13.4 32.24l23.42 8.23c.9.3 1.2 1.17 1.5 2.06l.06 29.6c.02.9-.57 1.5-1.46 2.08l-23.37 8.06c-2.64 11.55-7.35 22.52-13.54 32.3l10.72 22.2c.3.87.3 1.76-.3 2.36l-20.96 20.77c-.6.6-1.8.6-2.38.3l-22.24-10.9c-9.75 5.95-20.7 10.72-32.23 13.4l-8.24 23.42c-.28.9-1.17 1.2-2.05 1.5l-29.6.06c-.9.02-1.5-.57-2.1-1.46l-8.04-23.37c-11.55-2.64-22.5-7.35-32.3-13.54l-22.18 10.72c-.9.3-1.78.3-2.37-.3l-20.78-20.96c-.6-.6-.6-1.8-.3-2.38l10.9-22.23c-5.95-9.77-10.7-20.7-13.4-32.25l-23.42-8.24c-.9-.28-1.2-1.17-1.48-2.05l-.08-29.6zm112.7 74.92c32.88 9.7 67.48-9.06 77.17-41.95 9.68-32.88-9.06-67.47-42.24-77.16-32.9-9.68-67.5 9.06-77.18 42.24-9.68 32.6 9.35 67.2 42.24 76.88z"/><path fill="url(#e)" d="M1092.95 193.1c12.4 40.83 55.35 64.15 96.2 51.76 40.87-12.1 63.92-55.32 51.8-96.15-12.4-40.82-55.34-64.14-96.2-51.75-40.86 12.4-64.2 55.3-51.8 96.14zm56.7-79.6c31.72-9.5 65.22 8.42 74.74 40.1 9.5 31.7-8.43 65.19-40.43 74.7-31.7 9.5-65.2-8.4-74.73-40.4-9.52-31.4 8.7-64.88 40.4-74.4z"/><path fill="#8446F9" d="M1144.37-24.25c2.04-3.18 6.26-4.1 9.43-2.07l94.8 60.7c3.17 2.03 4.1 6.25 2.07 9.42l-60.7 94.8c-2.03 3.17-6.25 4.1-9.42 2.07l-94.8-60.7c-3.18-2.03-4.1-6.25-2.07-9.42l60.7-94.8z" filter="url(#f)"/><path fill="#fff" fill-rule="evenodd" d="M1228.1 52.38c1.3.72.97 2.8-.52 3.3l-13.24 4.44c-1.55.52-2.7-1.2-1.78-2.62l2.43-3.7c.3-.47.4-1.06.24-1.6l-1.22-3.97c-.47-1.53 1.2-3.02 2.55-2.27l11.53 6.42zm-74.03-13.47c-5.62 8.8-17.35 11.3-26.2 5.65-2.2-1.42-2.86-4.35-1.46-6.54 1.42-2.18 4.34-2.8 6.56-1.4 4.42 2.84 10.3 1.58 13.1-2.8l7.63-11.93c1.4-2.2 4.32-2.83 6.54-1.4 2.22 1.4 2.87 4.33 1.46 6.53l-7.63 11.9zm43.18 27.66c-2.8 4.4-1.5 10.25 2.92 13.08 2.22 1.42 2.88 4.33 1.47 6.53-1.4 2.2-4.34 2.83-6.55 1.4-8.86-5.65-11.48-17.36-5.86-26.14l7.63-11.92c1.4-2.2 4.34-2.82 6.55-1.4 2.22 1.42 2.86 4.35 1.46 6.54l-2.28 3.57 3.18 2.04c2.22 1.42 2.88 4.36 1.47 6.56-1.4 2.2-4.35 2.83-6.57 1.4l-3.18-2.02-.25.38zm-6.74-12.17c.03 0 .04 0 .04 0 .84-4.1.33-8.5-1.75-12.5-4.83-9.3-16.26-12.94-25.53-8.15-9.28 4.77-12.88 16.17-8.05 25.45 3.55 6.83 10.68 10.6 17.9 10.2v-.05c1.58.03 3.13-.74 4.04-2.16 1.4-2.2.75-5.13-1.46-6.54-1.06-.68-2.3-.9-3.45-.66-3.43.07-6.78-1.72-8.53-4.92l20.9 2.9c1.1.3 2.34.2 3.44-.36 1.32-.68 2.18-1.88 2.45-3.23zm-10.1-8.2c.3.6.53 1.17.7 1.77l-17.18-2.4c.87-1.42 2.13-2.62 3.7-3.44 4.65-2.38 10.36-.56 12.78 4.08zm-16.5 29.07c.23-.05.4-.17.54-.38.13-.2.17-.42.12-.65-.05-.24-.18-.42-.38-.55-.2-.13-.42-.16-.66-.1-.23.04-.4.16-.53.36-.14.2-.18.42-.13.65.05.25.18.43.38.55.2.13.42.17.65.12zm-2.2 1.43c-.16.04-.3.13-.4.3l-5.57 8.7c-.1.16-.13.32-.1.5.04.17.14.3.3.4.14.1.3.13.48.1.2-.05.32-.14.42-.3l5.58-8.7c.1-.16.13-.33.08-.5-.03-.18-.13-.3-.28-.4-.15-.1-.3-.14-.5-.1zm-26.5-14.08c.2.93.12 1.88-.28 2.86l-7.6-4.86c.75-.77 1.57-1.25 2.5-1.45 1.22-.27 2.36-.07 3.4.6 1.06.68 1.72 1.63 2 2.85zm-3.13 5.97c-.04-.2-.13-.33-.28-.43-.14-.08-.28-.1-.43-.1-.53.08-1.04.07-1.55-.04-.5-.1-1-.3-1.48-.62-1.05-.66-1.7-1.6-1.98-2.84-.2-.92-.1-1.87.28-2.86l8.16 5.23c.15.1.3.12.48.1.18-.05.3-.15.4-.3.87-1.35 1.14-2.82.8-4.4-.35-1.56-1.2-2.78-2.56-3.64-1.35-.88-2.8-1.14-4.38-.8-1.57.35-2.8 1.2-3.66 2.55-.87 1.36-1.13 2.82-.78 4.4.34 1.56 1.2 2.78 2.54 3.65 1.22.78 2.54 1.06 3.96.86.15-.04.28-.14.38-.3.1-.14.13-.3.1-.47zm7.87-5.84c-.18.04-.3.13-.4.28l-5.6 8.72c-.1.16-.12.32-.08.5.04.16.13.3.28.4.15.1.32.12.5.08.16-.03.3-.13.4-.28l3-4.72c.63-.96 1.48-1.55 2.58-1.8 1.12-.24 2.15-.06 3.1.55.94.6 1.54 1.46 1.78 2.57.25 1.1.07 2.12-.55 3.1l-3.02 4.7c-.1.16-.12.32-.1.5.05.17.15.3.3.4.15.1.3.13.48.1.2-.05.33-.14.43-.3l3.02-4.7c.8-1.27 1.04-2.62.72-4.08-.3-1.46-1.1-2.6-2.36-3.4-1.2-.78-2.7-1-4.43-.65l.65-1c.1-.16.12-.33.1-.5-.05-.17-.15-.3-.3-.4-.15-.1-.3-.13-.48-.1zm14.3 10.46c-1.06-.67-2.2-.88-3.42-.62-1.23.27-2.18.93-2.85 1.98-.67 1.05-.87 2.18-.6 3.4.27 1.23.93 2.18 1.98 2.86 1.05.67 2.2.87 3.4.6 1.23-.26 2.18-.92 2.85-1.97.67-1.06.88-2.2.6-3.4-.26-1.23-.92-2.18-1.97-2.85zm-.64 9.36c-1.82.5-3.47.28-4.94-.67-1.35-.85-2.2-2.07-2.55-3.63-.34-1.57-.08-3.03.8-4.38.85-1.37 2.07-2.2 3.64-2.55 1.57-.35 3.03-.08 4.38.78 1.36.87 2.2 2.1 2.55 3.66.35 1.55.1 3-.78 4.37l-3.18 4.95c-.64 1-1.57 1.65-2.77 1.92-1.7.37-3.26.1-4.72-.85-1.46-.94-2.37-2.25-2.73-3.93-.15-.6-.2-1.2-.17-1.77 0-.15.05-.28.12-.4.1-.14.23-.23.4-.27.17-.04.33 0 .5.1.14.08.23.22.27.4.02.08.03.16.02.25-.03.48 0 .95.1 1.42.16.67.42 1.26.78 1.78.37.52.83.96 1.4 1.33 1.16.75 2.4.97 3.75.68.9-.3 1.56-.74 1.95-1.36l1.18-1.84zm10.77-3.63c.1-.15.24-.25.4-.3.18-.02.34 0 .5.1.15.1.24.24.28.4.04.18 0 .34-.1.5l-.64 1c1.75-.34 3.23-.12 4.46.66 1.26.82 2.04 1.95 2.35 3.4.34 1.45.1 2.8-.7 4.06l-3.03 4.72c-.1.16-.23.25-.4.28-.18.04-.35 0-.5-.1-.15-.08-.24-.22-.28-.4-.05-.16-.02-.32.08-.48l3.02-4.72c.62-.96.8-2 .54-3.08-.24-1.12-.83-1.98-1.78-2.58-.94-.6-1.98-.8-3.1-.54-1.1.23-1.95.83-2.56 1.8l-3.02 4.7c-.1.16-.24.25-.4.3-.18.03-.34 0-.5-.1-.15-.1-.24-.23-.28-.4-.04-.18 0-.34.1-.5l5.57-8.7zm16.68 13.02c.2.93.1 1.88-.28 2.86l-7.6-4.86c.74-.77 1.57-1.25 2.5-1.45 1.2-.27 2.35-.07 3.4.6 1.05.68 1.7 1.63 1.98 2.85zm-3.14 5.97c-.02-.18-.12-.32-.27-.42-.13-.08-.27-.1-.42-.1-.5.08-1.03.07-1.54-.04-.5-.1-1-.3-1.48-.62-1.05-.67-1.7-1.62-1.98-2.85-.2-.9-.1-1.86.28-2.85l8.16 5.23c.15.1.3.12.5.1.16-.05.3-.15.4-.3.86-1.35 1.12-2.82.77-4.4-.33-1.56-1.18-2.78-2.53-3.64-1.36-.87-2.82-1.13-4.4-.8-1.56.36-2.78 1.2-3.65 2.56-.86 1.36-1.13 2.82-.78 4.4.34 1.56 1.2 2.78 2.55 3.65 1.2.78 2.53 1.06 3.94.86.16-.03.28-.13.38-.28.1-.15.13-.3.1-.48z" clip-rule="evenodd"/><path fill="#8446F9" d="M1124.35 184.37c.95-1.3 2.8-1.6 4.1-.64l39.1 28.62c1.32.95 1.6 2.8.65 4.1l-28.62 39.1c-.95 1.32-2.8 1.6-4.1.65l-39.1-28.62c-1.32-.95-1.6-2.8-.65-4.1l28.62-39.1z" filter="url(#g)"/><path fill="#fff" fill-rule="evenodd" d="M1158.27 219.53c.54.35.34 1.23-.3 1.4l-5.82 1.56c-.68.17-1.13-.6-.7-1.18l1.15-1.52c.15-.2.2-.45.15-.68l-.42-1.74c-.16-.67.6-1.27 1.16-.9l4.77 3.05zm-31.45-7.76c-2.65 3.62-7.75 4.4-11.4 1.72-.92-.68-1.12-1.95-.46-2.86.67-.9 1.94-1.1 2.85-.42 1.84 1.33 4.4.94 5.72-.87l3.6-4.9c.66-.92 1.93-1.1 2.85-.45.9.67 1.1 1.95.45 2.85l-3.6 4.92zm17.82 13.03c-1.33 1.8-.92 4.37.9 5.7.92.67 1.12 1.94.46 2.85-.67.9-1.94 1.1-2.86.43-3.64-2.67-4.46-7.77-1.8-11.4l3.6-4.9c.65-.92 1.93-1.1 2.84-.44.92.67 1.1 1.94.45 2.85l-1.07 1.45 1.3.97c.93.67 1.13 1.94.46 2.85-.66.9-1.94 1.1-2.85.44l-1.32-.96-.1.16zm-2.57-5.4c.48-1.74.38-3.64-.4-5.42-1.83-4.12-6.64-6-10.76-4.18-4.1 1.8-5.95 6.6-4.13 10.7 1.35 3.04 4.3 4.85 7.42 4.88v-.03c.67.06 1.36-.23 1.8-.82.65-.9.45-2.17-.46-2.84-.44-.33-.97-.45-1.47-.4-1.48-.05-2.87-.9-3.54-2.33l8.9 1.8c.48.17 1 .16 1.5-.06.58-.24.98-.73 1.14-1.3zm-4.13-3.8c.12.27.2.52.26.78l-7.32-1.48c.4-.6.98-1.08 1.68-1.4 2.06-.88 4.46.05 5.38 2.1zm-7.87 12.06c.1-.02.2-.07.25-.16.06-.08.08-.17.06-.27 0-.1-.06-.18-.14-.24-.1-.07-.18-.1-.28-.08-.1.02-.18.06-.24.15-.06.08-.1.17-.07.27.02.1.07.2.15.25.08.05.17.07.27.06zm-.97.55c-.08.02-.14.06-.18.12l-2.64 3.6c-.04.06-.06.13-.05.2 0 .08.05.14.1.2.08.03.14.05.22.04.08 0 .14-.05.18-.1l2.64-3.6c.04-.07.06-.14.04-.22 0-.07-.03-.13-.1-.18-.06-.04-.13-.06-.2-.05zm-11.02-6.75c.07.4 0 .8-.2 1.22l-3.13-2.3c.34-.3.7-.5 1.1-.55.54-.08 1.03.04 1.46.36.44.3.7.74.78 1.27zm-1.5 2.48c0-.08-.05-.14-.1-.2-.07-.02-.12-.04-.2-.04-.22 0-.44 0-.66-.07-.2-.06-.42-.16-.6-.3-.45-.32-.7-.75-.8-1.28-.05-.4 0-.8.2-1.22l3.37 2.46c.06.04.12.05.2.04.07 0 .14-.05.18-.1.4-.57.56-1.2.46-1.87-.1-.7-.44-1.23-1-1.64-.56-.4-1.18-.56-1.87-.46-.68.1-1.23.44-1.63 1-.4.56-.56 1.18-.46 1.86.1.7.44 1.23 1 1.64.5.37 1.06.53 1.67.48.07 0 .13-.05.18-.1.04-.08.06-.15.05-.22zm3.53-2.3c-.06.02-.12.06-.17.12l-2.63 3.6c-.05.06-.06.13-.05.2 0 .08.05.14.1.18.07.05.14.07.22.06.07-.03.13-.06.18-.13l1.42-1.94c.3-.4.67-.63 1.15-.7.5-.08.93.03 1.32.3.4.3.62.68.7 1.17.07.47-.03.9-.32 1.3l-1.43 1.96c-.05.06-.07.13-.06.2 0 .08.05.14.1.18.08.05.14.07.22.06.08 0 .14-.05.18-.1l1.43-1.96c.38-.52.52-1.1.42-1.73-.1-.62-.4-1.13-.93-1.5-.5-.38-1.14-.5-1.9-.4l.3-.42c.05-.07.07-.14.06-.2 0-.1-.05-.15-.1-.2-.07-.04-.14-.06-.22-.04zm5.87 4.88c-.43-.3-.9-.42-1.44-.34-.54.08-.96.34-1.28.77-.32.43-.43.9-.35 1.45.08.53.34.96.77 1.28.44.3.92.43 1.46.35.52-.07.95-.33 1.27-.77.3-.43.43-.9.35-1.44-.08-.55-.34-.97-.78-1.3zm-.52 4.02c-.8.16-1.5.02-2.1-.42-.56-.4-.9-.95-1-1.64-.1-.68.04-1.3.45-1.86.4-.56.96-.9 1.64-1 .68-.1 1.3.06 1.86.47.56.4.9.95 1 1.63.1.7-.04 1.3-.45 1.86l-1.5 2.05c-.3.42-.72.67-1.24.76-.72.1-1.4-.05-2-.5-.6-.43-.95-1.02-1.06-1.75-.05-.25-.06-.5-.03-.76.02-.06.04-.12.07-.16.05-.06.1-.1.18-.1.08-.02.15 0 .2.04.07.05.1.1.12.2 0 .02 0 .06 0 .1-.02.2-.02.4 0 .6.06.3.15.56.3.8.14.22.33.43.56.6.48.35 1 .48 1.6.4.4-.1.68-.3.87-.54l.55-.76zm4.73-1.27c.05-.07.1-.1.18-.12.08 0 .15 0 .2.06.07.03.1.1.12.17 0 .07 0 .14-.05.2l-.3.42c.75-.1 1.38.02 1.9.4.5.37.8.88.9 1.5.1.64-.03 1.22-.4 1.74l-1.44 1.95c-.05.05-.1.08-.2.1-.07 0-.14 0-.2-.06-.06-.04-.1-.1-.1-.18-.02-.07 0-.14.04-.2l1.43-1.95c.3-.4.4-.83.3-1.3-.06-.5-.3-.88-.68-1.16-.4-.3-.84-.4-1.33-.3-.48.06-.86.3-1.15.7l-1.42 1.93c-.05.07-.1.1-.2.1-.06.02-.13 0-.2-.04-.05-.04-.1-.1-.1-.18-.02-.07 0-.14.05-.2l2.63-3.6zm6.82 6.04c.06.4 0 .8-.2 1.2l-3.13-2.28c.33-.3.7-.5 1.1-.56.54-.08 1.02.03 1.45.35.44.33.7.75.78 1.3zm-1.5 2.47c-.02-.08-.06-.14-.12-.2-.05-.03-.1-.04-.18-.04-.23.02-.45 0-.66-.06-.22-.06-.42-.16-.62-.3-.44-.33-.7-.75-.78-1.3-.06-.4 0-.8.2-1.2l3.37 2.46c.07.04.14.06.2.05.1-.02.15-.05.2-.1.4-.57.55-1.2.45-1.88-.1-.68-.44-1.23-1-1.64-.56-.4-1.18-.56-1.86-.45-.7.12-1.24.45-1.65 1-.4.56-.56 1.2-.46 1.87.1.68.43 1.23 1 1.64.5.38 1.05.54 1.67.5.06-.03.12-.06.17-.13.04-.06.06-.13.05-.2z" clip-rule="evenodd"/><path fill="#6DD1DD" d="M1102.2 62.8c-.07.26-.3.4-.6.5l-7.37.7c-1.58 3.18-3.73 6.04-6.22 8.46l1.56 7.22c.03.28-.03.54-.25.67l-7.57 4.57c-.2.13-.55.05-.7-.08l-5.72-4.74c-3.25 1.04-6.77 1.66-10.33 1.63l-4.05 6.24c-.15.24-.43.26-.7.3l-8.64-2.08c-.26-.07-.4-.3-.5-.6l-.7-7.37c-3.18-1.58-6.04-3.73-8.45-6.22l-7.22 1.56c-.27.03-.53-.03-.66-.25l-4.58-7.57c-.13-.2-.05-.55.08-.7l4.75-5.72c-1.06-3.25-1.67-6.77-1.64-10.33l-6.24-4.05c-.24-.15-.27-.43-.3-.7l2.08-8.64c.06-.26.27-.4.57-.5l7.38-.7c1.6-3.18 3.73-6.04 6.23-8.45l-1.56-7.22c-.02-.27.04-.53.25-.66l7.58-4.58c.2-.13.56-.05.7.08l5.72 4.75c3.26-1.06 6.8-1.67 10.34-1.64l4.06-6.24c.15-.24.43-.27.7-.3l8.64 2.08c.26.06.4.27.5.57l.7 7.38c3.18 1.6 6.04 3.73 8.46 6.23l7.22-1.56c.28-.02.54.04.67.25l4.57 7.58c.13.2.05.56-.08.7l-4.74 5.72c1.04 3.26 1.66 6.8 1.63 10.34l6.24 4.06c.24.15.26.43.3.7l-2.08 8.64zm-27.56-29.78c-8.9-5.15-20.3-2.13-25.45 6.77-5.16 8.9-2.14 20.3 6.85 25.46 8.9 5.14 20.3 2.12 25.47-6.86 5.12-8.82 2.02-20.24-6.88-25.38z"/><path fill="#8446F9" d="M981.08 95.07c-.6-2.83 1.22-5.6 4.06-6.2l84.74-17.8c2.84-.6 5.62 1.23 6.22 4.07l17.78 84.74c.6 2.84-1.22 5.62-4.06 6.22l-84.75 17.78c-2.83.6-5.62-1.22-6.2-4.06l-17.8-84.75z" filter="url(#h)"/><path fill="#fff" fill-rule="evenodd" d="M1068.33 92c1.1-.3 2.04 1.02 1.5 2.1l-4.87 9.57c-.57 1.12-2.14.8-2.4-.47l-.65-3.34c-.08-.43-.34-.8-.7-1l-2.83-1.54c-1.08-.58-.97-2.3.18-2.62l9.78-2.7zm-47.88 32.52c1.64 7.85-3.44 15.55-11.34 17.2-1.98.43-3.9-.83-4.32-2.8-.4-1.95.86-3.87 2.84-4.3 3.95-.82 6.5-4.67 5.67-8.6l-2.25-10.65c-.4-1.97.85-3.9 2.83-4.3 2-.42 3.92.83 4.33 2.8l2.25 10.65zm38.6-8.1c.82 3.92 4.7 6.44 8.65 5.6 1.98-.4 3.9.83 4.32 2.8.42 1.97-.85 3.9-2.83 4.3-7.92 1.66-15.67-3.35-17.3-11.2l-2.25-10.65c-.4-1.97.86-3.9 2.84-4.3 1.97-.42 3.9.84 4.3 2.8l.68 3.18 2.84-.6c2-.4 3.93.85 4.34 2.8.4 1.98-.86 3.9-2.84 4.33l-2.84.6.07.34zm-10.26-3.05c-1.74-2.7-4.4-4.85-7.7-5.93-7.65-2.5-15.88 1.66-18.4 9.3-2.5 7.6 1.66 15.8 9.3 18.3 5.64 1.83 11.58.05 15.33-4.05l-.03-.04c.9-.84 1.32-2.1 1.06-3.37-.4-1.96-2.35-3.22-4.32-2.8-.95.2-1.75.75-2.25 1.5-1.86 1.88-4.66 2.7-7.35 1.9l13.03-9.68c.78-.43 1.4-1.14 1.7-2.05.36-1.1.18-2.2-.4-3.1zm-9.97.96c.48.16.92.36 1.34.6l-10.73 7.94c-.3-1.25-.24-2.6.18-3.9 1.26-3.8 5.38-5.88 9.2-4.64zm6.6 24.85c.1-.15.14-.32.1-.5-.04-.18-.13-.32-.28-.42-.16-.1-.32-.13-.5-.1-.18.04-.32.14-.43.3-.1.15-.13.3-.1.5.05.17.14.3.3.4.15.1.32.14.5.1.18-.03.32-.13.42-.28zm-.42 1.96c-.07.12-.1.24-.06.38l1.64 7.8c.02.13.1.23.2.3.12.08.25.1.38.07.14-.03.24-.1.32-.22.08-.1.1-.24.07-.37l-1.63-7.8c-.03-.13-.1-.23-.22-.3-.12-.08-.24-.1-.38-.07-.13.03-.24.1-.3.2zm-22.13 6.56c.6.4 1.07.97 1.38 1.72l-6.78 1.42c0-.8.18-1.52.58-2.13.53-.8 1.26-1.3 2.2-1.5.94-.2 1.8-.03 2.62.5zm1.5 4.97c-.12-.08-.25-.1-.38-.08-.13 0-.22.07-.3.16-.24.33-.54.6-.87.8-.34.23-.72.38-1.15.47-.94.2-1.8.03-2.62-.5-.6-.4-1.07-.97-1.4-1.72l7.3-1.52c.14-.03.25-.1.32-.2.07-.12.1-.25.07-.4-.26-1.2-.9-2.14-1.94-2.8-1.02-.7-2.14-.9-3.35-.65-1.22.26-2.16.9-2.83 1.94-.68 1.03-.9 2.15-.64 3.37.26 1.2.9 2.15 1.94 2.83 1.03.67 2.15.88 3.37.63 1.08-.23 1.95-.78 2.62-1.66.07-.1.08-.22.06-.36-.03-.14-.1-.24-.22-.3zm1.17-7.44c-.07.1-.1.23-.07.37l1.64 7.8c.04.13.1.24.22.3.1.1.24.1.37.08.13-.03.23-.1.3-.2.08-.13.1-.25.08-.4l-.9-4.2c-.17-.86-.02-1.65.46-2.37.48-.73 1.14-1.2 2-1.37.83-.17 1.62-.02 2.36.46.72.46 1.18 1.12 1.36 1.98l.9 4.22c0 .13.1.24.2.3.1.1.24.1.37.08.14-.03.24-.1.32-.2.08-.13.1-.25.07-.4l-.88-4.2c-.24-1.13-.84-2-1.8-2.63-.95-.63-2-.82-3.12-.6-1.1.24-2.02.92-2.8 2.05l-.18-.9c-.03-.14-.1-.24-.2-.32-.13-.07-.25-.1-.4-.07-.12.04-.23.1-.3.23zm13.48-1.97c-.94.2-1.67.7-2.2 1.5-.53.8-.7 1.7-.5 2.63.2.92.7 1.65 1.5 2.18.82.52 1.7.7 2.63.5.94-.2 1.67-.7 2.2-1.5.52-.82.7-1.7.5-2.63-.2-.94-.7-1.67-1.5-2.2-.82-.52-1.7-.68-2.63-.5zm4.7 5.48c-.73 1.25-1.75 2.02-3.07 2.3-1.2.25-2.33.04-3.37-.63-1.03-.66-1.68-1.6-1.93-2.8-.25-1.22-.04-2.34.64-3.37.66-1.04 1.6-1.68 2.82-1.94 1.2-.26 2.33-.05 3.37.63 1.02.67 1.67 1.6 1.92 2.82l.93 4.43c.2.9.02 1.75-.5 2.54-.7 1.12-1.73 1.8-3.03 2.08-1.3.28-2.5.05-3.62-.68-.4-.25-.76-.54-1.04-.88-.08-.1-.13-.18-.15-.27-.02-.14 0-.26.08-.38.07-.12.18-.2.3-.22.15-.03.28 0 .4.08.05.02.1.06.14.12.24.28.52.5.83.72.44.3.9.47 1.37.56.48.1.98.08 1.5-.03 1.03-.22 1.83-.77 2.4-1.65.35-.65.47-1.25.35-1.8l-.34-1.64zm3.96-7.8c-.03-.14 0-.26.07-.37.07-.12.18-.2.3-.22.15-.03.27 0 .4.07.1.08.17.18.2.32l.2.9c.76-1.13 1.7-1.8 2.78-2.04 1.13-.23 2.17-.04 3.12.6.96.62 1.56 1.5 1.8 2.6l.88 4.23c.03.14 0 .26-.07.38-.08.12-.18.2-.32.22-.13.03-.26 0-.37-.07-.12-.07-.2-.18-.22-.3l-.88-4.23c-.18-.86-.64-1.52-1.37-2-.73-.47-1.52-.62-2.36-.45-.85.18-1.5.64-2 1.38-.47.72-.62 1.5-.44 2.36l.9 4.23c0 .14 0 .26-.08.38s-.18.2-.32.22c-.13.03-.26 0-.37-.07-.12-.07-.2-.18-.2-.3l-1.65-7.8zm16.17-1.84c.6.4 1.07.97 1.38 1.72l-6.78 1.42c0-.8.18-1.52.58-2.13.53-.8 1.26-1.3 2.2-1.5.94-.2 1.8-.03 2.62.5zm1.5 4.97c-.12-.08-.25-.1-.38-.08-.12 0-.2.07-.3.16-.23.33-.53.6-.86.82-.33.2-.7.36-1.14.45-.94.2-1.8.03-2.62-.5-.6-.4-1.07-.97-1.4-1.72l7.3-1.52c.14-.03.25-.1.32-.2.08-.12.1-.25.07-.38-.25-1.2-.9-2.16-1.93-2.83-1.04-.68-2.16-.9-3.37-.64-1.2.26-2.16.9-2.83 1.94-.68 1.03-.9 2.16-.64 3.37.26 1.2.9 2.15 1.94 2.83 1.03.67 2.15.88 3.37.63 1.1-.23 1.96-.78 2.63-1.66.07-.1.08-.22.06-.36-.03-.13-.1-.24-.22-.3z" clip-rule="evenodd"/><path fill="#6DD1DD" d="M987.98 205.78c-.07.1-.18.13-.33.14l-3.35-.73c-1.15 1.17-2.5 2.13-3.94 2.84l-.33 3.4c-.03.14-.1.24-.2.27l-4 .96c-.1.03-.25-.05-.3-.13l-1.85-2.9c-1.6 0-3.23-.22-4.8-.74l-2.66 2.18c-.1.08-.23.05-.36.03l-3.52-2.12c-.1-.07-.13-.18-.14-.33l.73-3.35c-1.18-1.15-2.14-2.5-2.85-3.94l-3.4-.33c-.14-.03-.24-.1-.27-.2l-.94-4c-.03-.1.05-.25.13-.3l2.9-1.85c0-1.6.2-3.23.73-4.8l-2.2-2.66c-.07-.1-.05-.23-.02-.36l2.14-3.52c.07-.1.18-.13.33-.14l3.35.73c1.15-1.18 2.5-2.14 3.94-2.86l.33-3.4c.02-.13.08-.23.2-.26l4-.94c.1-.03.24.05.3.13l1.84 2.9c1.6 0 3.23.2 4.8.72l2.66-2.18c.1-.08.23-.06.36-.03l3.52 2.14c.1.07.13.18.14.33l-.73 3.35c1.17 1.15 2.13 2.5 2.84 3.94l3.4.33c.14.02.24.08.27.2l.96 4c.03.1-.05.24-.13.3l-2.9 1.84c0 1.6-.22 3.23-.74 4.8l2.18 2.66c.08.1.05.23.03.36l-2.12 3.52zM980 188.75c-3.2-3.53-8.66-3.8-12.18-.6-3.53 3.2-3.8 8.67-.56 12.22 3.2 3.52 8.67 3.8 12.2.55 3.5-3.17 3.75-8.65.55-12.17z"/><path fill="#5786E2" d="M281.5 51.12l-10.9-.72c-2.6-4.54-5.83-8.72-9.6-12.18l2.06-10.74c.12-.22-.02-.75-.47-1l-11.44-6.6c-.22-.1-.74.03-1.1.13l-8.13 7.18c-4.92-1.45-10.2-2.23-15.38-1.9l-6.27-9c-.32-.46-.54-.6-.9-.5l-12.7 3.57c-.3.27-.66.37-.7.94l-.7 10.9c-4.53 2.6-8.7 5.83-12.15 9.62l-10.73-2.08c-.22-.13-.74.02-1 .47l-6.57 11.44c-.12.23.02.75.12 1.1l7.17 8.16c-1.45 4.92-2.22 10.2-1.9 15.4l-8.96 6.26c-.47.32-.6.55-.5.9l3.56 12.74c.28.3.37.65.95.67l10.9.72c2.6 4.54 5.83 8.7 9.6 12.17l-2.06 10.74c-.1.23.03.76.48 1l11.42 6.6c.23.13.75-.02 1.1-.12l8.14-7.17c4.9 1.46 10.2 2.24 15.38 1.92l6.27 8.98c.26.3.7.55 1.05.45l12.72-3.55c.3-.28.65-.37.68-.94l.7-10.93c4.54-2.6 8.7-5.82 12.16-9.6l10.74 2.07c.22.13.75-.02 1-.46l6.57-11.44c.14-.22 0-.75-.1-1.1l-7.18-8.15c1.45-4.92 2.22-10.22 1.9-15.4l8.96-6.27c.3-.27.55-.72.45-1.07l-3.56-12.73c-.4-.08-.5-.42-1.07-.45zm-49.2 36.34c-7.68 2.14-15.7-2.4-17.86-10.07-2.15-7.7 2.37-15.72 10.04-17.87 7.67-2.14 15.7 2.4 17.85 10.07 2.14 7.68-2.37 15.72-10.04 17.86z"/><path fill="#5785E2" d="M381.47 172.07c.07.4-.15.7-.5 1.04l-9.82 5.34c-.3 5.35-1.6 10.6-3.63 15.42l6.44 9.1c.2.37.26.76.04 1.07l-7.8 10.83c-.22.3-.75.4-1.03.3l-10.73-3.2c-3.9 3.4-8.43 6.33-13.38 8.4l-1.92 11.05c-.07.43-.44.63-.8.83l-13.2 2.24c-.4.07-.72-.15-1.05-.5l-5.35-9.82c-5.34-.3-10.6-1.6-15.4-3.63l-9.1 6.44c-.38.2-.77.26-1.08.04l-10.84-7.8c-.3-.22-.4-.75-.3-1.03l3.2-10.73c-3.38-3.9-6.33-8.43-8.4-13.38l-11.04-1.92c-.43-.07-.63-.44-.83-.8l-2.25-13.2c-.06-.4.16-.72.5-1.05l9.83-5.34c.3-5.35 1.6-10.6 3.63-15.42l-6.44-9.1c-.2-.37-.26-.77-.05-1.07l7.8-10.83c.22-.3.74-.4 1.03-.32l10.73 3.2c3.9-3.38 8.43-6.32 13.38-8.38l1.92-11.06c.06-.4.44-.6.8-.8l13.2-2.26c.4-.06.72.16 1.05.5l5.34 9.83c5.35.3 10.6 1.6 15.42 3.63l9.1-6.44c.37-.2.76-.26 1.07-.05l10.83 7.8c.3.22.4.74.3 1.03l-3.2 10.73c3.4 3.9 6.34 8.43 8.4 13.38l11.05 1.92c.43.06.63.44.83.8l2.24 13.2zm-55.85-25c-15.4-1.87-29.42 9.07-31.3 24.46-1.85 15.4 9.1 29.42 24.6 31.27 15.4 1.86 29.43-9.08 31.27-24.6 1.88-15.26-9.2-29.26-24.58-31.13z"/><path fill="#8446F9" d="M415.58 58.35c.84-1.85 3.02-2.67 4.87-1.83l55.25 25.06c1.85.84 2.67 3.02 1.83 4.87l-25.06 55.25c-.84 1.85-3.02 2.67-4.87 1.83l-55.25-25.06c-1.85-.84-2.67-3.02-1.83-4.87l25.06-55.25z" filter="url(#i)"/><path fill="#fff" fill-rule="evenodd" d="M466.15 92.76c.75.3.73 1.42-.02 1.8l-6.72 3.4c-.77.4-1.53-.43-1.14-1.26l1-2.16c.14-.28.14-.6.02-.87l-.96-2.03c-.37-.78.4-1.7 1.2-1.4l6.63 2.52zm-40.52-1.47c-2.32 5.1-8.4 7.36-13.54 5.02-1.3-.58-1.87-2.1-1.3-3.37.58-1.28 2.1-1.84 3.4-1.26 2.56 1.16 5.6.03 6.76-2.52l3.15-6.95c.6-1.28 2.1-1.84 3.4-1.26 1.3.6 1.86 2.1 1.28 3.38l-3.15 6.94zm25.16 11.4c-1.17 2.57-.02 5.6 2.56 6.76 1.3.6 1.87 2.1 1.28 3.37-.58 1.28-2.1 1.85-3.38 1.26-5.15-2.35-7.46-8.4-5.13-13.5l3.15-6.95c.58-1.3 2.1-1.85 3.38-1.26 1.3.57 1.86 2.1 1.28 3.36l-.94 2.08 1.86.84c1.3.6 1.86 2.1 1.28 3.4-.58 1.27-2.1 1.83-3.4 1.25l-1.85-.84-.1.2zm-4.54-5.96c.15-2.25-.46-4.56-1.88-6.53-3.3-4.58-9.67-5.64-14.25-2.37-4.57 3.26-5.62 9.62-2.33 14.2 2.43 3.36 6.52 4.82 10.34 4.06v-.04c.84-.1 1.6-.64 1.98-1.47.58-1.28 0-2.8-1.28-3.37-.62-.3-1.3-.3-1.9-.1-1.8.3-3.74-.4-4.92-1.96l11.37-.07c.6.08 1.26-.06 1.8-.45.65-.46 1.02-1.17 1.06-1.9zm-6.03-3.6c.2.3.38.6.52.9l-9.35.05c.35-.84.93-1.58 1.7-2.14 2.3-1.62 5.5-1.1 7.13 1.2zm-6.56 16.8c.12-.05.2-.14.26-.25.06-.13.06-.25.02-.37-.05-.12-.13-.2-.25-.26-.1-.05-.23-.06-.36 0-.1.04-.2.12-.25.23-.07.12-.07.24-.03.36.05.12.13.2.25.26.12.05.24.05.36 0zm-1.05.92c-.1.03-.16.1-.2.18l-2.3 5.1c-.04.08-.04.16 0 .25.02.08.08.15.17.2.08.03.17.03.26 0 .1-.04.16-.1.2-.18l2.3-5.1c.04-.08.05-.16 0-.26-.02-.1-.1-.15-.18-.2-.08-.03-.17-.03-.26 0zm-15.23-5.47c.18.47.2 1 .06 1.54l-4.42-2c.33-.47.74-.8 1.2-.97.64-.24 1.27-.22 1.88.06.6.28 1.04.73 1.27 1.36zm-1.22 3.42c-.03-.1-.1-.16-.18-.2-.08-.04-.15-.04-.23-.02-.28.08-.55.1-.83.1-.28-.02-.56-.1-.84-.22-.6-.28-1.04-.73-1.28-1.37-.17-.46-.2-.98-.07-1.54l4.76 2.16c.1.04.2.05.27 0 .1-.02.16-.08.2-.17.36-.8.38-1.6.08-2.4-.3-.8-.86-1.4-1.64-1.76-.78-.36-1.58-.4-2.4-.1-.8.32-1.4.87-1.75 1.66-.36.8-.38 1.6-.08 2.4.3.8.85 1.4 1.64 1.75.72.33 1.45.4 2.2.17.07-.04.13-.1.17-.2.04-.07.04-.16 0-.25zm3.75-3.72c-.1.04-.16.1-.2.2l-2.3 5.07c-.04.1-.05.18 0 .27.02.08.08.15.17.2.1.03.18.03.27 0 .08-.03.15-.1.2-.18l1.24-2.75c.26-.55.67-.94 1.24-1.15.58-.22 1.14-.2 1.7.05.54.25.93.67 1.14 1.24.22.56.2 1.13-.05 1.7l-1.25 2.74c-.04.1-.04.18 0 .27.03.08.1.15.17.2.1.03.18.03.27 0 .1-.03.16-.1.2-.18l1.25-2.75c.33-.73.35-1.47.07-2.23-.28-.76-.8-1.3-1.52-1.63-.7-.33-1.52-.33-2.42 0l.27-.6c.04-.1.04-.17 0-.26-.03-.08-.1-.15-.18-.2-.1-.03-.18-.03-.27 0zm8.43 4.48c-.62-.28-1.24-.3-1.87-.06-.64.23-1.1.66-1.38 1.27-.27.6-.3 1.22-.05 1.85.24.64.66 1.1 1.27 1.37.62.28 1.24.3 1.87.06.64-.24 1.1-.66 1.37-1.27.28-.6.3-1.23.06-1.86-.24-.63-.66-1.08-1.27-1.36zm.4 5.04c-.95.4-1.84.42-2.7.03-.8-.36-1.34-.94-1.64-1.75-.3-.8-.28-1.6.07-2.4.35-.8.93-1.33 1.74-1.63.8-.3 1.62-.28 2.4.08.8.36 1.34.94 1.65 1.75.3.8.27 1.6-.1 2.4l-1.3 2.88c-.27.6-.7 1-1.33 1.24-.87.33-1.73.3-2.58-.1-.87-.37-1.45-1-1.77-1.87-.13-.3-.2-.62-.23-.93 0-.08 0-.15.03-.22.04-.08.1-.14.2-.18.08-.03.17-.03.26 0 .08.05.14.12.18.2 0 .05.02.1.02.14.03.26.08.5.18.75.13.36.3.65.54.9.23.25.52.45.85.6.68.3 1.36.33 2.05.07.47-.23.78-.52.94-.88l.5-1.08zm5.45-2.77c.05-.08.12-.15.2-.18.1-.03.18-.03.27 0 .1.05.15.12.18.2.04.1.03.18 0 .27l-.27.6c.9-.33 1.7-.33 2.42 0 .73.33 1.24.87 1.5 1.62.3.75.28 1.5-.05 2.23l-1.25 2.74c-.04.1-.1.15-.2.18s-.18.03-.27 0c-.1-.05-.15-.12-.18-.2-.03-.1-.03-.18 0-.27l1.26-2.75c.26-.56.28-1.13.06-1.7-.22-.57-.6-.98-1.15-1.23-.54-.25-1.1-.27-1.68-.05-.57.2-.98.6-1.23 1.15l-1.26 2.75c-.04.1-.1.15-.2.2-.08.02-.17.02-.26-.02-.1-.04-.15-.1-.18-.2-.04-.1-.03-.17 0-.26l2.3-5.1zm9.9 5.66c.2.5.2 1 .08 1.56l-4.43-2c.34-.47.74-.8 1.22-.97.63-.25 1.25-.23 1.87.05.6.27 1.03.73 1.27 1.36zm-1.2 3.44c-.04-.1-.1-.16-.18-.2-.08-.03-.16-.04-.24-.02-.27.08-.55.1-.83.1-.28-.02-.55-.1-.83-.22-.62-.28-1.04-.74-1.28-1.37-.18-.47-.2-1-.07-1.55l4.75 2.16c.1.04.18.05.27 0 .08-.02.14-.08.18-.17.36-.8.4-1.6.08-2.4-.3-.8-.85-1.4-1.64-1.75-.8-.36-1.6-.4-2.4-.08-.8.3-1.4.85-1.75 1.64-.36.78-.4 1.6-.08 2.4.3.8.84 1.4 1.63 1.75.7.32 1.44.38 2.18.16.1-.05.15-.1.2-.2.03-.08.03-.17 0-.26z" clip-rule="evenodd"/><path fill="#8446F9" d="M245.53 181.02c-1.95-3.18-.95-7.34 2.22-9.28l94.95-58.2c3.18-1.96 7.33-.96 9.28 2.2l58.2 94.96c1.96 3.18.96 7.33-2.22 9.28l-94.94 58.2c-3.18 1.96-7.33.96-9.28-2.22l-58.2-94.94z" filter="url(#j)"/><path fill="#8446F9" d="M245.53 181.02c-1.95-3.18-.95-7.34 2.22-9.28l94.95-58.2c3.18-1.96 7.33-.96 9.28 2.2l58.2 94.96c1.96 3.18.96 7.33-2.22 9.28l-94.94 58.2c-3.18 1.96-7.33.96-9.28-2.22l-58.2-94.94z"/><path fill="#fff" fill-rule="evenodd" d="M349.88 139.55c1.2-.84 2.9.34 2.7 1.88l-1.74 13.7c-.2 1.6-2.24 1.9-3.1.46l-2.24-3.76c-.3-.5-.78-.83-1.3-.9l-4.08-.64c-1.57-.25-2.18-2.38-.93-3.26l10.68-7.5zm-43.93 60.1c5.4 8.8 2.57 20.32-6.28 25.75-2.22 1.36-5.1.67-6.46-1.52-1.33-2.2-.63-5.07 1.6-6.43 4.42-2.72 5.82-8.5 3.13-12.88l-7.32-11.94c-1.34-2.2-.64-5.08 1.58-6.44 2.22-1.37 5.1-.7 6.45 1.5l7.32 11.95zm43.25-26.52c2.7 4.4 8.47 5.76 12.9 3.05 2.22-1.36 5.1-.7 6.45 1.5 1.35 2.22.65 5.1-1.57 6.45-8.86 5.43-20.4 2.7-25.8-6.08l-7.32-11.94c-1.35-2.2-.65-5.06 1.57-6.43 2.22-1.36 5.1-.67 6.45 1.53l2.2 3.56 3.17-1.95c2.22-1.35 5.12-.67 6.47 1.54 1.35 2.2.65 5.1-1.57 6.45l-3.2 1.95.25.38zm-13.75.75s.02-.02.02-.02c-3.28-2.52-7.42-3.96-11.88-3.84-10.37.3-18.54 8.9-18.28 19.2.25 10.33 8.84 18.45 19.18 18.16 7.62-.22 14.05-4.94 16.8-11.53l-.04-.02c.7-1.4.7-3.12-.18-4.54-1.34-2.2-4.22-2.88-6.43-1.53-1.07.66-1.8 1.67-2.1 2.8-1.4 3.07-4.44 5.3-8.05 5.47l11.6-17.36c.76-.86 1.2-2 1.17-3.22-.03-1.47-.73-2.75-1.82-3.58zm-11.64 5.47c.65-.02 1.27.03 1.88.14l-9.55 14.25c-.9-1.38-1.42-3.02-1.46-4.8-.12-5.14 3.96-9.44 9.14-9.6zm18.76 27.24c.06-.24.02-.46-.1-.66-.13-.2-.3-.33-.53-.38-.23-.06-.44-.03-.65.1-.2.12-.32.3-.38.53-.05.22-.02.43.1.63.13.2.3.34.53.4.23.04.45 0 .64-.12.2-.1.34-.3.4-.5zm.33 2.55c-.05.17-.02.33.07.48l5.35 8.74c.1.15.23.24.4.28.17.04.33.02.48-.07.15-.1.25-.23.3-.4.04-.17 0-.33-.08-.5l-5.35-8.72c-.1-.15-.23-.25-.4-.28-.18-.05-.34-.02-.5.07-.14.1-.24.23-.28.4zm-23.98 17.52c.9.22 1.72.7 2.42 1.5l-7.6 4.65c-.37-1-.44-1.93-.23-2.84.3-1.2.98-2.13 2.03-2.78 1.05-.64 2.18-.82 3.4-.53zm3.95 5.37c-.17-.05-.33-.02-.5.07-.1.1-.2.2-.25.34-.16.5-.4.96-.7 1.37-.33.4-.73.76-1.2 1.05-1.06.65-2.2.82-3.4.53-.9-.2-1.7-.7-2.42-1.48l8.17-5c.16-.1.25-.23.3-.4.03-.17 0-.33-.1-.48-.82-1.36-2-2.22-3.55-2.6-1.55-.37-3-.14-4.36.7-1.36.83-2.22 2.02-2.6 3.56-.36 1.55-.13 3 .7 4.36.83 1.35 2.02 2.22 3.57 2.6 1.55.36 3 .13 4.35-.7 1.23-.75 2.05-1.8 2.48-3.15.03-.17 0-.32-.1-.47-.1-.15-.22-.25-.4-.3zm-1.8-9.52c-.03.17 0 .33.1.48l5.34 8.74c.1.15.24.25.4.3.18.03.34 0 .5-.1.14-.1.24-.22.28-.4.04-.16 0-.32-.08-.47l-2.9-4.73c-.58-.96-.75-1.97-.48-3.05.26-1.12.87-1.96 1.8-2.54.96-.58 1.98-.73 3.08-.47 1.08.24 1.92.84 2.5 1.8l2.9 4.73c.1.16.24.25.4.3.18.03.34 0 .5-.1.14-.08.24-.2.28-.38.04-.17.02-.34-.07-.5l-2.9-4.72c-.76-1.25-1.87-2.05-3.3-2.4-1.43-.34-2.77-.13-4.03.64-1.23.76-2.06 1.98-2.5 3.68l-.62-1c-.1-.17-.23-.26-.4-.3-.17-.04-.33-.02-.48.08-.15.1-.25.22-.3.4zm15.5-8.2c-1.06.64-1.74 1.56-2.03 2.76-.3 1.2-.1 2.34.53 3.4.64 1.03 1.57 1.7 2.78 2 1.2.28 2.33.1 3.4-.54 1.04-.65 1.7-1.57 2-2.78.3-1.2.1-2.32-.54-3.38-.64-1.05-1.56-1.73-2.76-2-1.2-.3-2.33-.12-3.38.53zm8.06 4.6c-.35 1.82-1.26 3.2-2.73 4.1-1.36.83-2.8 1.06-4.35.7-1.55-.37-2.74-1.23-3.56-2.6-.85-1.34-1.07-2.8-.7-4.33.37-1.56 1.24-2.75 2.6-3.58 1.35-.83 2.8-1.06 4.35-.7 1.54.38 2.73 1.24 3.56 2.6l3.05 4.96c.62 1 .8 2.1.5 3.3-.4 1.65-1.3 2.93-2.78 3.83-1.46.9-3.02 1.15-4.67.75-.6-.13-1.15-.34-1.65-.62-.13-.07-.23-.16-.3-.27-.08-.15-.1-.3-.07-.48.04-.17.14-.3.3-.4.14-.1.3-.1.5-.07.06.02.13.05.2.1.42.23.86.4 1.32.5.66.17 1.3.2 1.9.1.64-.1 1.23-.33 1.8-.68 1.16-.7 1.9-1.73 2.22-3.05.13-.93 0-1.7-.37-2.32l-1.12-1.84zm1.4-11.17c-.08-.15-.1-.3-.07-.48.04-.17.14-.3.3-.4.14-.1.3-.12.47-.08.17.03.3.13.4.28l.62 1.02c.44-1.7 1.27-2.93 2.5-3.68 1.26-.77 2.6-1 4.03-.63 1.44.32 2.54 1.12 3.3 2.38l2.9 4.73c.1.16.13.32.08.5-.04.17-.14.3-.3.4-.14.08-.3.1-.47.07-.18-.04-.3-.14-.4-.3l-2.9-4.72c-.6-.96-1.43-1.57-2.52-1.8-1.1-.28-2.12-.12-3.06.46-.95.6-1.56 1.43-1.82 2.53-.27 1.08-.1 2.1.48 3.06l2.9 4.72c.1.15.12.3.08.48-.04.17-.14.3-.3.4-.14.1-.3.1-.47.07-.18-.04-.3-.13-.4-.3l-5.36-8.72zm18.8-9.23c.9.22 1.72.72 2.42 1.5l-7.6 4.65c-.37-1-.44-1.93-.22-2.84.3-1.2.96-2.13 2-2.78 1.06-.64 2.2-.82 3.4-.53zm3.96 5.37c-.2-.06-.35-.03-.5.06-.13.08-.22.2-.27.33-.16.5-.4.95-.7 1.36-.32.4-.72.75-1.2 1.04-1.05.65-2.18.83-3.4.54-.9-.22-1.7-.7-2.42-1.48l8.18-5c.16-.1.25-.24.3-.4.03-.18 0-.34-.08-.5-.84-1.35-2.03-2.2-3.57-2.58-1.55-.37-3-.14-4.36.7-1.35.82-2.22 2-2.6 3.56-.36 1.54-.13 3 .7 4.35.83 1.35 2.02 2.2 3.57 2.58 1.55.37 3 .14 4.36-.7 1.22-.74 2.04-1.8 2.47-3.14.03-.15 0-.3-.1-.46-.08-.15-.22-.25-.38-.3z" clip-rule="evenodd"/><path fill="#4AA8D0" d="M287.75 107.6c.02.13-.06.23-.18.33l-3.34 1.67c-.17 1.78-.66 3.5-1.4 5.1l2.04 3.1c.06.14.08.28 0 .38l-2.73 3.52c-.08.1-.26.12-.35.1l-3.56-1.2c-1.34 1.07-2.9 2-4.56 2.63l-.78 3.67c-.02.14-.15.2-.28.26l-4.43.6c-.15 0-.25-.07-.35-.2l-1.67-3.33c-1.78-.17-3.5-.66-5.1-1.4l-3.12 2.04c-.12.06-.26.08-.36 0l-3.52-2.73c-.1-.08-.12-.26-.1-.35l1.2-3.55c-1.08-1.35-2-2.9-2.63-4.57l-3.67-.78c-.14-.03-.2-.15-.26-.28l-.6-4.43c0-.15.06-.25.2-.35l3.33-1.67c.17-1.78.66-3.52 1.4-5.1l-2.04-3.12c-.05-.12-.07-.26 0-.36l2.74-3.52c.08-.1.26-.12.35-.1l3.53 1.2c1.35-1.08 2.9-2 4.57-2.63l.78-3.67c.02-.14.15-.2.28-.26l4.43-.6c.13 0 .23.06.33.2l1.67 3.33c1.78.17 3.5.66 5.1 1.4l3.12-2.04c.12-.05.25-.07.36 0l3.52 2.74c.1.08.12.25.1.35l-1.2 3.53c1.07 1.35 2 2.9 2.63 4.57l3.67.78c.14.02.2.15.26.28l.6 4.43zm-18.35-9.03c-5.1-.8-9.93 2.68-10.74 7.8-.8 5.1 2.68 9.93 7.84 10.73 5.12.8 9.93-2.67 10.73-7.84.82-5.07-2.7-9.88-7.83-10.7z"/><path fill="#568AE1" d="M444.93 218.2c-.04.2-.2.33-.43.44l-5.9 1.13c-1.03 2.68-2.54 5.15-4.37 7.3l1.8 5.7c.05.22.02.43-.14.55l-5.77 4.27c-.16.12-.45.08-.58-.02l-4.97-3.4c-2.55 1.1-5.34 1.87-8.2 2.12l-2.8 5.34c-.1.2-.32.25-.54.3l-7.12-1c-.22-.04-.34-.2-.45-.44l-1.13-5.9c-2.7-1.03-5.16-2.54-7.3-4.37l-5.7 1.8c-.22.05-.44.02-.56-.14l-4.27-5.77c-.1-.16-.07-.45.02-.58l3.4-4.97c-1.1-2.55-1.87-5.34-2.12-8.2l-5.34-2.8c-.2-.1-.25-.32-.3-.55l1.02-7.1c.03-.23.2-.35.43-.46l5.9-1.13c1.03-2.7 2.55-5.16 4.37-7.3l-1.8-5.7c-.05-.22-.02-.44.14-.56l5.77-4.27c.17-.1.45-.07.58.02l4.97 3.4c2.55-1.1 5.35-1.87 8.2-2.12l2.8-5.34c.1-.2.33-.25.55-.3l7.12 1.02c.2.03.32.2.44.43l1.13 5.9c2.68 1.03 5.15 2.55 7.3 4.37l5.7-1.8c.22-.05.43-.02.55.15l4.27 5.75c.1.17.07.45-.02.58l-3.38 4.97c1.1 2.55 1.85 5.35 2.1 8.2l5.34 2.8c.2.1.25.33.3.55l-1 7.12zm-24.5-21.9c-7.57-3.48-16.54-.17-20 7.4-3.47 7.57-.16 16.53 7.48 20 7.58 3.47 16.55.17 20.02-7.48 3.46-7.5.08-16.47-7.5-19.94z"/><path fill="#8446F9" d="M289.03 52.97c-1.12-1.3-.97-3.28.34-4.4l39.13-33.54c1.3-1.12 3.3-.97 4.4.34l33.54 39.13c1.13 1.3.97 3.3-.34 4.4l-39.13 33.54c-1.3 1.13-3.28.97-4.4-.34l-33.54-39.13z" filter="url(#k)"/><path fill="#fff" fill-rule="evenodd" d="M333.7 26.4c.47-.47 1.34-.06 1.36.66l.2 6.4c.03.74-.88 1.02-1.38.43l-1.3-1.56c-.17-.2-.4-.33-.66-.33l-1.9.02c-.74 0-1.18-.92-.67-1.42l4.34-4.2zM318 57.07c3.1 3.62 2.66 9.1-1 12.23-.9.78-2.27.68-3.05-.23-.77-.9-.66-2.27.25-3.05 1.83-1.57 2.05-4.3.5-6.12l-4.22-4.92c-.78-.9-.67-2.27.25-3.06.9-.78 2.28-.68 3.06.23l4.2 4.92zm17.83-15.28c1.55 1.8 4.3 2 6.12.44.9-.78 2.28-.7 3.05.22.78.9.67 2.28-.24 3.06-3.65 3.13-9.13 2.73-12.24-.9l-4.2-4.9c-.8-.92-.68-2.3.23-3.07.92-.78 2.3-.68 3.06.22l1.27 1.47 1.32-1.12c.9-.78 2.28-.68 3.05.22.78.9.67 2.3-.24 3.07l-1.3 1.14.13.15zm-6.23 1.34c-1.68-.92-3.67-1.28-5.7-.9-4.7.9-7.82 5.42-6.95 10.1.87 4.7 5.4 7.8 10.1 6.9 3.46-.65 6.05-3.28 6.84-6.5h-.04c.22-.7.1-1.47-.4-2.06-.8-.9-2.15-1-3.06-.22-.45.38-.7.9-.75 1.43-.43 1.5-1.65 2.73-3.3 3.08l4.04-8.78c.28-.45.4-1 .3-1.56-.13-.67-.54-1.2-1.1-1.5zm-4.92 3.35c.3-.07.58-.1.87-.1l-3.32 7.23c-.5-.57-.87-1.28-1.02-2.08-.43-2.35 1.13-4.6 3.48-5.06zm10.56 11.06c0-.1-.02-.2-.1-.28-.07-.08-.15-.13-.26-.14-.1 0-.2.02-.3.1-.07.06-.12.16-.13.27 0 .1.02.2.1.3.07.08.16.12.26.13.12 0 .22-.03.3-.1.1-.07.13-.16.14-.27zm.34 1.15c0 .1.02.16.07.23l3.08 3.6c.06.06.12.1.2.1.08 0 .16-.02.22-.07.06-.06.1-.12.1-.2 0-.1 0-.16-.06-.22l-3.1-3.6c-.05-.06-.12-.1-.2-.1-.08 0-.16.02-.22.07-.06.06-.1.13-.1.2zm-9.68 9.77c.44.03.84.2 1.22.5l-3.14 2.7c-.24-.44-.34-.86-.3-1.3.04-.57.28-1.04.7-1.4.45-.38.95-.55 1.52-.5zm2.2 2.16c-.08 0-.15.02-.22.07-.05.05-.08.1-.1.17-.03.24-.1.47-.22.68-.1.2-.27.4-.47.56-.44.38-.94.55-1.52.5-.43-.03-.83-.2-1.2-.5l3.36-2.88c.06-.06.1-.12.1-.2 0-.08-.02-.16-.07-.22-.48-.56-1.1-.86-1.82-.92-.74-.06-1.38.15-1.94.63-.55.5-.86 1.1-.92 1.83-.05.74.16 1.38.64 1.94s1.08.87 1.82.92c.73.05 1.38-.16 1.94-.64.5-.43.8-.97.9-1.62 0-.07-.02-.14-.08-.2-.05-.07-.12-.1-.2-.1zm-1.5-4.2c-.02.07 0 .14.06.2l3.08 3.6c.06.06.12.1.2.1.08 0 .16 0 .22-.07.06-.05.1-.12.1-.2 0-.08 0-.15-.07-.2l-1.68-1.96c-.34-.4-.48-.85-.44-1.36.04-.53.25-.96.64-1.3.4-.32.85-.47 1.37-.43.5.04.93.26 1.27.66l1.67 1.95c.05.07.12.1.2.1.08 0 .15 0 .22-.06.06-.06.1-.12.1-.2 0-.1 0-.16-.07-.22l-1.68-1.95c-.44-.52-1-.8-1.7-.85-.66-.06-1.26.14-1.78.58-.5.44-.8 1.06-.87 1.87l-.36-.42c-.05-.07-.1-.1-.2-.1-.07 0-.15 0-.2.06-.07.07-.1.13-.1.22zm6.46-4.9c-.43.37-.67.85-.72 1.42-.04.57.12 1.07.5 1.5.36.44.83.67 1.4.72.58.04 1.08-.12 1.5-.5.45-.36.7-.84.73-1.4.05-.58-.12-1.08-.5-1.5-.36-.45-.83-.7-1.4-.73-.57-.04-1.08.12-1.5.5zm4.02 1.5c-.02.88-.34 1.57-.94 2.1-.56.47-1.2.68-1.94.63-.73-.06-1.34-.36-1.82-.92s-.7-1.2-.63-1.94c.06-.73.37-1.34.93-1.82.56-.47 1.2-.7 1.94-.63.73.05 1.33.36 1.8.92l1.76 2.05c.36.4.52.9.48 1.46-.06.8-.4 1.44-1 1.96s-1.3.74-2.08.68c-.28-.02-.55-.07-.8-.16-.06-.03-.1-.06-.15-.1-.05-.07-.08-.14-.07-.22 0-.08.04-.14.1-.2.07-.05.14-.08.22-.07.04 0 .07 0 .12.03.2.07.4.12.63.13.3.03.6 0 .88-.1.3-.1.55-.24.78-.44.48-.42.74-.94.8-1.56-.02-.44-.13-.78-.35-1.04l-.65-.76zm-.17-5.2c-.04-.05-.06-.12-.06-.2 0-.08.04-.15.1-.2.07-.06.14-.08.22-.08.08 0 .15.05.2.1l.36.43c.08-.8.37-1.43.87-1.87.5-.43 1.1-.63 1.8-.57.67.05 1.23.33 1.68.85l1.67 1.95c.05.06.07.14.06.22 0 .08-.03.15-.1.2-.05.05-.12.08-.2.07-.08 0-.15-.04-.2-.1l-1.67-1.95c-.34-.4-.77-.6-1.28-.65-.53-.04-.98.1-1.37.44-.4.34-.6.77-.65 1.3-.04.5.1.95.45 1.35l1.67 1.96c.05.06.07.13.07.2 0 .1-.04.16-.1.2-.07.07-.14.1-.22.1-.08-.02-.15-.06-.2-.12l-3.1-3.6zm7.93-5.58c.43.04.83.2 1.2.5l-3.13 2.7c-.23-.43-.33-.86-.3-1.3.04-.56.28-1.03.72-1.4.43-.38.93-.54 1.5-.5zm2.2 2.17c-.1 0-.16 0-.22.07-.05.03-.08.1-.1.16-.03.24-.1.46-.2.67-.13.2-.3.4-.48.57-.44.37-.94.53-1.5.5-.44-.05-.85-.2-1.23-.5l3.36-2.9c.06-.05.1-.12.1-.2 0-.08-.02-.15-.07-.2-.5-.57-1.1-.88-1.83-.94-.73-.05-1.38.16-1.94.64s-.87 1.08-.92 1.82c-.05.73.16 1.38.64 1.94.48.55 1.1.86 1.82.92.74.06 1.38-.16 1.94-.64.5-.43.8-.97.9-1.6 0-.1-.02-.16-.07-.22-.06-.06-.12-.1-.2-.1z" clip-rule="evenodd"/><path fill="#6DD1DD" d="M315.32 296.4c-.06.4-.37.64-.82.85l-11.4 2.18c-2 5.2-4.9 9.97-8.44 14.1l3.5 11.02c.07.43 0 .84-.3 1.08l-11.13 8.25c-.3.24-.86.16-1.12-.02l-9.6-6.54c-4.9 2.1-10.3 3.6-15.85 4.07l-5.4 10.3c-.2.4-.62.5-1.05.56l-13.76-1.94c-.4-.06-.65-.37-.86-.82l-2.18-11.4c-5.2-2-9.97-4.9-14.1-8.44l-11.02 3.5c-.43.07-.85 0-1.08-.3l-8.25-11.13c-.24-.3-.16-.86.02-1.12L209 301c-2.1-4.9-3.58-10.3-4.06-15.85l-10.32-5.4c-.4-.2-.47-.62-.56-1.05l1.95-13.76c.07-.4.38-.65.83-.86l11.4-2.18c2-5.2 4.9-9.97 8.44-14.1l-3.5-11.02c-.07-.43 0-.85.3-1.08l11.13-8.25c.3-.24.86-.16 1.12.02l9.6 6.54c4.92-2.1 10.32-3.58 15.86-4.06l5.4-10.32c.2-.4.62-.48 1.05-.56L271.4 221c.4.07.64.38.85.83l2.18 11.4c5.2 2 9.97 4.9 14.1 8.44l11.02-3.5c.43-.07.85-.02 1.08.3l8.25 11.13c.24.3.16.86-.02 1.12l-6.54 9.6c2.1 4.92 3.6 10.32 4.07 15.86l10.3 5.4c.4.2.5.62.56 1.05l-1.94 13.76zm-47.34-42.34c-14.63-6.7-31.95-.3-38.64 14.33-6.7 14.62-.3 31.94 14.46 38.65 14.63 6.7 31.95.3 38.66-14.46 6.68-14.5.15-31.84-14.48-38.54z"/></g><defs><filter id="f" width="229.145" height="229.145" x="1052.6" y="-47.399" filterUnits="userSpaceOnUse" color-interpolation-filters="sRGB"><feFlood flood-opacity="0" result="BackgroundImageFix"/><feColorMatrix in="SourceAlpha" values="0 0 0 0 0 0 0 0 0 0 0 0 0 0 0 0 0 0 127 0"/><feOffset dy="10"/><feGaussianBlur stdDeviation="15"/><feColorMatrix values="0 0 0 0 0.141176 0 0 0 0 0.0784314 0 0 0 0 0.266667 0 0 0 0.3 0"/><feBlend in2="BackgroundImageFix" result="effect1_dropShadow"/><feBlend in="SourceGraphic" in2="effect1_dropShadow" result="shape"/></filter><filter id="g" width="133.596" height="133.596" x="1065.17" y="163.167" filterUnits="userSpaceOnUse" color-interpolation-filters="sRGB"><feFlood flood-opacity="0" result="BackgroundImageFix"/><feColorMatrix in="SourceAlpha" values="0 0 0 0 0 0 0 0 0 0 0 0 0 0 0 0 0 0 127 0"/><feOffset dy="10"/><feGaussianBlur stdDeviation="15"/><feColorMatrix values="0 0 0 0 0.141176 0 0 0 0 0.0784314 0 0 0 0 0.266667 0 0 0 0.3 0"/><feBlend in2="BackgroundImageFix" result="effect1_dropShadow"/><feBlend in="SourceGraphic" in2="effect1_dropShadow" result="shape"/></filter><filter id="h" width="173.028" height="173.028" x="950.965" y="50.965" filterUnits="userSpaceOnUse" color-interpolation-filters="sRGB"><feFlood flood-opacity="0" result="BackgroundImageFix"/><feColorMatrix in="SourceAlpha" values="0 0 0 0 0 0 0 0 0 0 0 0 0 0 0 0 0 0 127 0"/><feOffset dy="10"/><feGaussianBlur stdDeviation="15"/><feColorMatrix values="0 0 0 0 0.141176 0 0 0 0 0.0784314 0 0 0 0 0.266667 0 0 0 0.3 0"/><feBlend in2="BackgroundImageFix" result="effect1_dropShadow"/><feBlend in="SourceGraphic" in2="effect1_dropShadow" result="shape"/></filter><filter id="i" width="147.668" height="147.668" x="360.189" y="36.19" filterUnits="userSpaceOnUse" color-interpolation-filters="sRGB"><feFlood flood-opacity="0" result="BackgroundImageFix"/><feColorMatrix in="SourceAlpha" values="0 0 0 0 0 0 0 0 0 0 0 0 0 0 0 0 0 0 127 0"/><feOffset dy="10"/><feGaussianBlur stdDeviation="15"/><feColorMatrix values="0 0 0 0 0.141176 0 0 0 0 0.0784314 0 0 0 0 0.266667 0 0 0 0.3 0"/><feBlend in2="BackgroundImageFix" result="effect1_dropShadow"/><feBlend in="SourceGraphic" in2="effect1_dropShadow" result="shape"/></filter><filter id="j" width="226.656" height="226.656" x="214.531" y="92.531" filterUnits="userSpaceOnUse" color-interpolation-filters="sRGB"><feFlood flood-opacity="0" result="BackgroundImageFix"/><feColorMatrix in="SourceAlpha" values="0 0 0 0 0 0 0 0 0 0 0 0 0 0 0 0 0 0 127 0"/><feOffset dy="10"/><feGaussianBlur stdDeviation="15"/><feColorMatrix values="0 0 0 0 0.141176 0 0 0 0 0.0784314 0 0 0 0 0.266667 0 0 0 0.3 0"/><feBlend in2="BackgroundImageFix" result="effect1_dropShadow"/><feBlend in="SourceGraphic" in2="effect1_dropShadow" result="shape"/></filter><filter id="k" width="138.914" height="138.914" x="258.281" y="-5.72" filterUnits="userSpaceOnUse" color-interpolation-filters="sRGB"><feFlood flood-opacity="0" result="BackgroundImageFix"/><feColorMatrix in="SourceAlpha" values="0 0 0 0 0 0 0 0 0 0 0 0 0 0 0 0 0 0 127 0"/><feOffset dy="10"/><feGaussianBlur stdDeviation="15"/><feColorMatrix values="0 0 0 0 0.141176 0 0 0 0 0.0784314 0 0 0 0 0.266667 0 0 0 0.3 0"/><feBlend in2="BackgroundImageFix" result="effect1_dropShadow"/><feBlend in="SourceGraphic" in2="effect1_dropShadow" result="shape"/></filter><linearGradient id="b" x1="298.763" x2="511.509" y1="36.011" y2="-224.274" gradientUnits="userSpaceOnUse"><stop stop-color="#5B77E7"/><stop offset=".494" stop-color="#49B5D2"/><stop offset="1" stop-color="#26E8A8"/></linearGradient><linearGradient id="c" x1="328.889" x2="454.8" y1="-45.871" y2="108.176" gradientUnits="userSpaceOnUse"><stop stop-color="#5B77E7"/><stop offset=".494" stop-color="#49B5D2"/><stop offset="1" stop-color="#26E8A8"/></linearGradient><linearGradient id="d" x1="1240.58" x2="1028.5" y1="119.279" y2="380.102" gradientUnits="userSpaceOnUse"><stop stop-color="#5B77E7"/><stop offset=".494" stop-color="#49B5D2"/><stop offset="1" stop-color="#26E8A8"/></linearGradient><linearGradient id="e" x1="1210.66" x2="1084.36" y1="201.236" y2="47.51" gradientUnits="userSpaceOnUse"><stop stop-color="#5B77E7"/><stop offset=".494" stop-color="#49B5D2"/><stop offset="1" stop-color="#26E8A8"/></linearGradient><clipPath id="a"><path fill="#fff" d="M0 0h1440v264H0z"/></clipPath></defs></svg>